name analog
datacolumns 19
datarows 45
range 0.275 0.297
endheader
time	ground_force_vx	ground_force_vy	ground_force_vz	ground_force_px	ground_force_py	ground_force_pz	l_ground_force_vx	l_ground_force_vy	l_ground_force_vz	l_ground_force_px	l_ground_force_py	l_ground_force_pz	ground_torque_x	ground_torque_y	ground_torque_z	l_ground_torque_x	l_ground_torque_y	l_ground_torque_z
0.275	-0.0	-0.0	-0.0	-6.201818943023682	55.04645919799805	-352.9833068847656	20.091249465942383	-53.519474029541016	-402.2364196777344	-0.0	-0.0	-0.0	-0.0	-0.0	-0.0	104684.7265625	-15424.126953125	2833.02783203125
0.2755	-0.0	-0.0	-0.0	-5.835022926330566	55.07598114013672	-351.7933959960937	19.825151443481445	-54.10213851928711	-403.2970275878906	-0.0	-0.0	-0.0	-0.0	-0.0	-0.0	104776.0078125	-15264.0576171875	2686.6669921875
0.276	-0.0	-0.0	-0.0	-5.346163749694824	54.544578552246094	-353.3501281738281	19.654455184936523	-54.45864486694336	-403.4644470214844	-0.0	-0.0	-0.0	-0.0	-0.0	-0.0	104663.890625	-15417.7861328125	2405.16943359375
0.2765	-0.0	-0.0	-0.0	-5.362112045288086	54.81203842163086	-353.1549072265625	19.60508346557617	-55.11273193359375	-403.7874145507813	-0.0	-0.0	-0.0	-0.0	-0.0	-0.0	104937.5078125	-15329.98046875	2298.360595703125
0.277	-0.0	-0.0	-0.0	-5.269598960876465	55.30078506469727	-354.7386779785156	19.253440856933597	-55.554344177246094	-406.0633544921875	-0.0	-0.0	-0.0	-0.0	-0.0	-0.0	105090.765625	-15357.3359375	2105.72900390625
0.2775	-0.0	-0.0	-0.0	-5.743520259857178	55.13167572021485	-354.7513427734375	18.809814453125	-55.86502456665039	-405.533447265625	-0.0	-0.0	-0.0	-0.0	-0.0	-0.0	105599.2578125	-15638.5537109375	2103.242431640625
0.278	-0.0	-0.0	-0.0	-6.198658466339111	55.844608306884766	-356.5643005371094	19.115646362304688	-56.17259216308594	-406.9302062988281	-0.0	-0.0	-0.0	-0.0	-0.0	-0.0	106152.359375	-15563.138671875	1967.3873291015625
0.2785	-0.0	-0.0	-0.0	-6.520984649658203	56.28728485107422	-359.172607421875	19.4246768951416	-56.443504333496094	-408.8565673828125	-0.0	-0.0	-0.0	-0.0	-0.0	-0.0	106291.828125	-15695.9072265625	2000.303466796875
0.279	-0.0	-0.0	-0.0	-6.644783020019531	57.445945739746094	-360.9831848144531	19.925765991210938	-56.30942535400391	-409.42041015625	-0.0	-0.0	-0.0	-0.0	-0.0	-0.0	106559.90625	-15776.6669921875	2035.2642822265625
0.2795	-0.0	-0.0	-0.0	-6.069041252136231	58.15077972412109	-362.3841857910156	20.815460205078125	-55.99029159545898	-410.9514770507813	-0.0	-0.0	-0.0	-0.0	-0.0	-0.0	106937.265625	-15935.435546875	2149.80078125
0.28	-0.0	-0.0	-0.0	-5.533706188201904	58.37245559692383	-364.9956970214844	21.37929916381836	-56.48585510253906	-410.5914306640625	-0.0	-0.0	-0.0	-0.0	-0.0	-0.0	106960.2578125	-15786.166015625	2269.693603515625
0.2805	-0.0	-0.0	-0.0	-5.3907790184021	59.449981689453125	-364.8655395507813	21.825550079345703	-56.52587890625	-411.8296508789063	-0.0	-0.0	-0.0	-0.0	-0.0	-0.0	107131.484375	-15997.4248046875	2419.235107421875
0.281	-0.0	-0.0	-0.0	-4.590576648712158	60.20884323120117	-367.3468627929688	22.88738250732422	-56.61681365966797	-412.5071411132813	-0.0	-0.0	-0.0	-0.0	-0.0	-0.0	107099.1015625	-15933.3037109375	2313.936767578125
0.28150000000000003	-0.0	-0.0	-0.0	-4.5014753341674805	60.51710891723633	-368.1852722167969	23.41709518432617	-56.35177993774414	-412.1785278320313	-0.0	-0.0	-0.0	-0.0	-0.0	-0.0	106854.2421875	-16022.1845703125	2403.421142578125
0.28200000000000003	-0.0	-0.0	-0.0	-3.925262451171875	60.66151428222656	-369.7981567382813	23.69322395324707	-56.29890060424805	-407.9690246582031	-0.0	-0.0	-0.0	-0.0	-0.0	-0.0	106427.6171875	-15866.6474609375	2640.99072265625
0.28250000000000003	-0.0	-0.0	-0.0	-3.2573299407958984	61.01778030395508	-369.9332885742188	24.613630294799805	-55.91242599487305	-406.4219970703125	-0.0	-0.0	-0.0	-0.0	-0.0	-0.0	105803.6953125	-15606.91796875	2540.786865234375
0.28300000000000003	-0.0	-0.0	-0.0	-2.9874420166015625	60.608673095703125	-369.7442626953125	25.15067481994629	-55.9982795715332	-408.3190307617188	-0.0	-0.0	-0.0	-0.0	-0.0	-0.0	105716.9296875	-15606.6650390625	2687.08740234375
0.28350000000000003	-0.0	-0.0	-0.0	-2.228113412857056	60.02825546264648	-369.0390319824219	24.75030899047852	-56.08427429199219	-408.328369140625	-0.0	-0.0	-0.0	-0.0	-0.0	-0.0	106178.6484375	-15601.9892578125	2524.042724609375
0.28400000000000003	-0.0	-0.0	-0.0	-1.3360812664031982	59.22819137573242	-369.0483703613281	24.57508087158203	-56.26309967041016	-410.2445068359375	-0.0	-0.0	-0.0	-0.0	-0.0	-0.0	106164.2890625	-15554.43359375	2316.24853515625
0.28450000000000003	-0.0	-0.0	-0.0	-0.6164592504501343	58.86963272094727	-367.291259765625	24.21592330932617	-56.4417839050293	-409.5548706054688	-0.0	-0.0	-0.0	-0.0	-0.0	-0.0	106365.234375	-15313.3173828125	2124.2197265625
0.28500000000000003	-0.0	-0.0	-0.0	-0.3093381524085998	58.82220458984375	-366.9616088867188	24.088054656982425	-56.43551635742188	-409.7173156738281	-0.0	-0.0	-0.0	-0.0	-0.0	-0.0	106696.640625	-15375.7392578125	1857.1422119140625
0.28550000000000003	-0.0	-0.0	-0.0	-0.0380968749523162	58.60602951049805	-367.1268615722656	23.99923515319824	-56.56511688232422	-411.4790954589844	-0.0	-0.0	-0.0	-0.0	-0.0	-0.0	106769.578125	-15378.9033203125	1796.3829345703125
0.28600000000000003	-0.0	-0.0	-0.0	-0.2676315307617187	59.13713073730469	-367.8404541015625	24.397371292114254	-56.70063018798828	-412.34808349609375	-0.0	-0.0	-0.0	-0.0	-0.0	-0.0	107012.3203125	-15271.33203125	1679.286376953125
0.28650000000000003	-0.0	-0.0	-0.0	-0.3551265299320221	59.36084747314453	-367.4667663574219	24.22171401977539	-56.79084777832031	-412.51904296875	-0.0	-0.0	-0.0	-0.0	-0.0	-0.0	107114.3046875	-15483.9814453125	1590.134521484375
0.28700000000000003	-0.0	-0.0	-0.0	-0.8045372366905212	60.12420272827149	-366.96044921875	24.527650833129883	-56.259159088134766	-412.1700134277344	-0.0	-0.0	-0.0	-0.0	-0.0	-0.0	107017.3046875	-15173.9775390625	1695.18310546875
0.28750000000000003	-0.0	-0.0	-0.0	-1.3444366455078125	60.56489562988281	-368.5401611328125	24.393775939941406	-55.99427032470703	-411.8077087402344	-0.0	-0.0	-0.0	-0.0	-0.0	-0.0	106771.984375	-14982.9521484375	1515.42724609375
0.28800000000000003	-0.0	-0.0	-0.0	-1.2459516525268557	60.919883728027344	-368.0134887695313	24.526103973388672	-56.43594741821289	-410.4181823730469	-0.0	-0.0	-0.0	-0.0	-0.0	-0.0	106662.1953125	-15061.5390625	1561.281982421875
0.2885	-0.0	-0.0	-0.0	-1.25322425365448	61.23116302490234	-370.502685546875	24.748762130737305	-56.03934097290039	-409.7142028808594	-0.0	-0.0	-0.0	-0.0	-0.0	-0.0	106405.8671875	-14844.2333984375	1457.4224853515625
0.289	-0.0	-0.0	-0.0	-1.834903120994568	61.5013313293457	-372.0509643554688	24.30233192443848	-55.820777893066406	-409.5490417480469	-0.0	-0.0	-0.0	-0.0	-0.0	-0.0	105999.9453125	-14694.46875	1294.23046875
0.2895	-0.0	-0.0	-0.0	-1.3381576538085938	61.31660079956055	-372.614990234375	24.444726943969727	-55.24172592163086	-406.76165771484375	-0.0	-0.0	-0.0	-0.0	-0.0	-0.0	105635.9375	-14545.1103515625	1382.4971923828125
0.29	-0.0	-0.0	-0.0	-1.4701603651046753	61.72220230102539	-373.1369934082031	24.70528793334961	-54.31254196166992	-405.1826171875	-0.0	-0.0	-0.0	-0.0	-0.0	-0.0	105086.90625	-14672.4697265625	1234.1651611328125
0.2905	-0.0	-0.0	-0.0	-1.6035175323486328	62.0776252746582	-374.3887023925781	24.704065322875977	-53.95954132080078	-403.9634704589844	-0.0	-0.0	-0.0	-0.0	-0.0	-0.0	104606.421875	-14092.0205078125	1264.7958984375
0.291	-0.0	-0.0	-0.0	-0.9823786020278932	61.767372131347656	-372.4387817382813	24.881595611572266	-53.87150573730469	-402.9163208007813	-0.0	-0.0	-0.0	-0.0	-0.0	-0.0	104302.46875	-14025.8759765625	1234.8717041015625
0.2915	-0.0	-0.0	-0.0	-0.4891692101955414	61.451942443847656	-372.7833862304688	24.74919319152832	-53.302696228027344	-401.35198974609375	-0.0	-0.0	-0.0	-0.0	-0.0	-0.0	104075.3046875	-13884.802734375	1174.8594970703125
0.292	-0.0	-0.0	-0.0	-0.7550710439682007	60.83012390136719	-371.89849853515625	24.884939193725582	-52.90677261352539	-401.520263671875	-0.0	-0.0	-0.0	-0.0	-0.0	-0.0	103686.8671875	-13531.099609375	1161.8551025390625
0.2925	-0.0	-0.0	-0.0	-0.1792676597833633	60.82938766479492	-370.4757080078125	24.661598205566406	-52.95030212402344	-400.47308349609375	-0.0	-0.0	-0.0	-0.0	-0.0	-0.0	103624.109375	-13339.1103515625	1042.331298828125
0.293	-0.0	-0.0	-0.0	-0.9355470538139344	60.876068115234375	-371.8923645019531	24.65979766845703	-52.727149963378906	-399.4188537597656	-0.0	-0.0	-0.0	-0.0	-0.0	-0.0	103182.96875	-13137.3740234375	893.7655639648438
0.2935	-0.0	-0.0	-0.0	-0.9806129336357116	61.1862678527832	-372.2516479492188	24.484176635742188	-52.55222702026367	-396.4698181152344	-0.0	-0.0	-0.0	-0.0	-0.0	-0.0	102773.8359375	-13002.037109375	745.1123657226562
0.294	-0.0	-0.0	-0.0	-1.203397274017334	61.14157104492188	-373.4940185546875	24.26051139831543	-52.37626647949219	-396.6421813964844	-0.0	-0.0	-0.0	-0.0	-0.0	-0.0	102600.1015625	-12606.09375	790.1737670898438
0.2945	-0.0	-0.0	-0.0	-0.8017773032188416	60.60811996459961	-372.4293518066406	23.86251640319824	-52.15293502807617	-396.6308288574219	-0.0	-0.0	-0.0	-0.0	-0.0	-0.0	102654.2734375	-12483.818359375	537.4480590820312
0.295	-0.0	-0.0	-0.0	-0.4913864433765411	60.47425079345703	-374.1912536621094	23.46430778503418	-52.285831451416016	-397.6764526367188	-0.0	-0.0	-0.0	-0.0	-0.0	-0.0	103025.1875	-12242.296875	388.8351135253906
0.2955	-0.0	-0.0	-0.0	-0.6709368228912354	60.47394943237305	-374.5481567382813	23.33039665222168	-52.41865539550781	-398.5618896484375	-0.0	-0.0	-0.0	-0.0	-0.0	-0.0	103197.984375	-12018.275390625	329.4022827148437
0.296	-0.0	-0.0	-0.0	-0.7140249609947205	61.23224639892578	-373.4844055175781	22.886445999145508	-52.064937591552734	-399.0821228027344	-0.0	-0.0	-0.0	-0.0	-0.0	-0.0	103245.5	-11692.927734375	121.08269500732422
0.2965	-0.0	-0.0	-0.0	-1.1597366333007812	60.5192756652832	-372.9558715820313	22.62045669555664	-52.55219650268555	-398.3851318359375	-0.0	-0.0	-0.0	-0.0	-0.0	-0.0	103304.703125	-11329.5390625	-12.556381225585938
0.297	-0.0	-0.0	-0.0	-1.829305410385132	60.83179473876953	-373.31195068359375	22.48737525939941	-52.24179458618164	-398.90765380859375	-0.0	-0.0	-0.0	-0.0	-0.0	-0.0	103254.2265625	-11016.5	-160.26620483398438
